<?xml version="1.0" encoding="UTF-8" standalone="no"?>
<!-- Created with Inkscape (http://www.inkscape.org/) -->

<svg
   xmlns:dc="http://purl.org/dc/elements/1.1/"
   xmlns:cc="http://creativecommons.org/ns#"
   xmlns:rdf="http://www.w3.org/1999/02/22-rdf-syntax-ns#"
   xmlns:svg="http://www.w3.org/2000/svg"
   xmlns="http://www.w3.org/2000/svg"
   xmlns:sodipodi="http://sodipodi.sourceforge.net/DTD/sodipodi-0.dtd"
   xmlns:inkscape="http://www.inkscape.org/namespaces/inkscape"
   width="210mm"
   height="297mm"
   viewBox="0 0 744.09448819 1052.3622047"
   id="svg2"
   version="1.1"
   inkscape:version="0.91 r13725"
   sodipodi:docname="link_nodes.svg"
   inkscape:export-filename="D:\Apps\artificial_neural_network\register_problem\node_graphics\link_nodes.png"
   inkscape:export-xdpi="460.79999"
   inkscape:export-ydpi="460.79999">
  <defs
     id="defs4" />
  <sodipodi:namedview
     id="base"
     pagecolor="#ffffff"
     bordercolor="#666666"
     borderopacity="1.0"
     inkscape:pageopacity="0.0"
     inkscape:pageshadow="2"
     inkscape:zoom="2"
     inkscape:cx="-75.459809"
     inkscape:cy="-25.869803"
     inkscape:document-units="px"
     inkscape:current-layer="layer1"
     showgrid="false"
     showguides="true"
     inkscape:guide-bbox="true"
     inkscape:snap-bbox="true"
     inkscape:snap-intersection-paths="true"
     inkscape:bbox-nodes="true"
     inkscape:object-nodes="true"
     inkscape:object-paths="true"
     inkscape:snap-smooth-nodes="true"
     inkscape:snap-center="true">
    <sodipodi:guide
       position="0,0"
       orientation="0,1"
       id="guide4136"
       inkscape:label=""
       inkscape:color="rgb(0,0,255)" />
    <sodipodi:guide
       position="0,0"
       orientation="1,0"
       id="guide4142"
       inkscape:label=""
       inkscape:color="rgb(0,0,255)" />
    <sodipodi:guide
       position="50,0"
       orientation="1,0"
       id="guide4154"
       inkscape:label=""
       inkscape:color="rgb(0,0,255)" />
    <sodipodi:guide
       position="0,50.000001"
       orientation="0,1"
       id="guide4156"
       inkscape:label=""
       inkscape:color="rgb(0,0,255)" />
    <sodipodi:guide
       position="19.134,46.193001"
       orientation="1,0"
       id="guide4158"
       inkscape:label=""
       inkscape:color="rgb(255,0,5)" />
    <sodipodi:guide
       position="19.134,46.194001"
       orientation="0,1"
       id="guide4160"
       inkscape:label=""
       inkscape:color="rgb(255,0,0)" />
    <sodipodi:guide
       position="35.355,35.355001"
       orientation="0,1"
       id="guide4162"
       inkscape:label=""
       inkscape:color="rgb(255,2,0)" />
    <sodipodi:guide
       position="35.355,35.355301"
       orientation="1,0"
       id="guide4164"
       inkscape:label=""
       inkscape:color="rgb(255,0,0)" />
    <sodipodi:guide
       position="46.193,19.134"
       orientation="1,0"
       id="guide4166"
       inkscape:label=""
       inkscape:color="rgb(255,0,0)" />
    <sodipodi:guide
       position="46.193,19.134"
       orientation="0,1"
       id="guide4168"
       inkscape:label=""
       inkscape:color="rgb(255,8,0)" />
    <sodipodi:guide
       position="-50,0"
       orientation="1,0"
       id="guide4170"
       inkscape:label=""
       inkscape:color="rgb(0,0,255)" />
    <sodipodi:guide
       position="0,-50.000001"
       orientation="0,1"
       id="guide4172"
       inkscape:label=""
       inkscape:color="rgb(0,0,255)" />
    <sodipodi:guide
       position="-19.134,-46.193001"
       orientation="1,0"
       id="guide4174"
       inkscape:label=""
       inkscape:color="rgb(255,154,0)" />
    <sodipodi:guide
       position="-35.355,-35.355001"
       orientation="1,0"
       id="guide4176"
       inkscape:label=""
       inkscape:color="rgb(255,95,0)" />
    <sodipodi:guide
       position="-46.193,-19.1341"
       orientation="1,0"
       id="guide4178"
       inkscape:label=""
       inkscape:color="rgb(255,155,0)" />
    <sodipodi:guide
       position="-19.134,-46.193901"
       orientation="0,1"
       id="guide4180"
       inkscape:label=""
       inkscape:color="rgb(255,130,0)" />
    <sodipodi:guide
       position="-35.355,-35.355001"
       orientation="0,1"
       id="guide4182"
       inkscape:label=""
       inkscape:color="rgb(255,166,0)" />
    <sodipodi:guide
       position="-46.193,-19.134"
       orientation="0,1"
       id="guide4186"
       inkscape:label=""
       inkscape:color="rgb(255,132,0)" />
    <sodipodi:guide
       position="161.74805,257.05226"
       orientation="1,0"
       id="guide4241" />
    <sodipodi:guide
       position="-100,-100"
       orientation="0,1"
       id="guide4171"
       inkscape:label=""
       inkscape:color="rgb(0,0,255)" />
    <sodipodi:guide
       position="-100,-75.000002"
       orientation="0,1"
       id="guide4177"
       inkscape:label=""
       inkscape:color="rgb(0,0,255)" />
    <sodipodi:guide
       position="0,-100"
       orientation="0.70710678,0.70710678"
       id="guide4181" />
    <sodipodi:guide
       position="0,-99.999976"
       orientation="-0.70710678,0.70710678"
       id="guide4185" />
    <sodipodi:guide
       position="-100,-150"
       orientation="0,1"
       id="guide4187"
       inkscape:label=""
       inkscape:color="rgb(0,0,255)" />
  </sodipodi:namedview>
  <metadata
     id="metadata7">
    <rdf:RDF>
      <cc:Work
         rdf:about="">
        <dc:format>image/svg+xml</dc:format>
        <dc:type
           rdf:resource="http://purl.org/dc/dcmitype/StillImage" />
        <dc:title />
      </cc:Work>
    </rdf:RDF>
  </metadata>
  <g
     inkscape:label="Capa 1"
     inkscape:groupmode="layer"
     id="layer1">
    <path
       inkscape:connector-curvature="0"
       id="path4196"
       d="m 50,1102.3622 -50.000024,50 50.000024,0"
       style="fill:#ffffff;fill-opacity:1;fill-rule:evenodd;stroke:none;stroke-width:1px;stroke-linecap:butt;stroke-linejoin:miter;stroke-opacity:1"
       sodipodi:nodetypes="ccc" />
    <rect
       style="color:#000000;clip-rule:nonzero;display:inline;overflow:visible;visibility:visible;opacity:1;isolation:auto;mix-blend-mode:normal;color-interpolation:sRGB;color-interpolation-filters:linearRGB;solid-color:#000000;solid-opacity:1;fill:#ffff00;fill-opacity:1;fill-rule:evenodd;stroke:none;stroke-width:0.0125;stroke-linecap:square;stroke-linejoin:miter;stroke-miterlimit:4;stroke-dasharray:none;stroke-dashoffset:0;stroke-opacity:1;color-rendering:auto;image-rendering:auto;shape-rendering:auto;text-rendering:auto;enable-background:accumulate"
       id="rect4148"
       width="100"
       height="100.00002"
       x="-50"
       y="1002.3622" />
    <path
       style="fill:#37abc8;fill-opacity:1;fill-rule:evenodd;stroke:none;stroke-width:1px;stroke-linecap:butt;stroke-linejoin:miter;stroke-opacity:1"
       d="m 0,1002.3622 19.134,3.806 16.221,10.839 10.838,16.221 3.807,19.134 -3.807,19.134 -10.838,16.221 -16.221,10.8389 -19.134,3.8061 -19.134,-3.8061 -16.221,-10.8389 -10.838,-16.221 -3.807,-19.134 3.807,-19.134 10.838,-16.221 16.221,-10.839 z"
       id="path4188"
       inkscape:connector-curvature="0"
       sodipodi:nodetypes="ccccccccccccccccc" />
    <g
       id="g4255"
       transform="matrix(0.92646469,-0.53489464,0.53489464,0.92646469,-616.56418,375.99115)">
      <path
         sodipodi:nodetypes="sccccccssccccss"
         inkscape:connector-curvature="0"
         id="path4232"
         d="m 166.10456,830.75245 c -2.99772,0 -3.8661,0.0271 -4.13864,1.22851 l 0.008,0.82617 -0.008,3.19474 0.31445,0.41211 11.84586,5.8e-4 c -1.06039,-0.21729 -1.94853,-0.53257 -2.32227,-0.90821 0.19992,-0.0115 0.40511,-0.0195 0.62695,-0.0195 l 13.82813,0 c 1.80378,0 3.6903,0.3947 4.61914,0.92774 l 10.51758,0 0,-0.21485 -3.36133,-3.39258 c -1.127,-1.13769 -4.91489,-2.05468 -8.49414,-2.05468 z"
         style="color:#000000;clip-rule:nonzero;display:inline;overflow:visible;visibility:visible;opacity:1;isolation:auto;mix-blend-mode:normal;color-interpolation:sRGB;color-interpolation-filters:linearRGB;solid-color:#000000;solid-opacity:1;fill:#1c2224;fill-opacity:1;fill-rule:evenodd;stroke:none;stroke-width:0.0125;stroke-linecap:square;stroke-linejoin:miter;stroke-miterlimit:4;stroke-dasharray:none;stroke-dashoffset:0;stroke-opacity:1;color-rendering:auto;image-rendering:auto;shape-rendering:auto;text-rendering:auto;enable-background:accumulate" />
      <path
         id="rect4190"
         d="m 151.60742,823.43359 c -6.03464,0 -10.89258,4.85794 -10.89258,10.89258 0,6.03464 4.85794,10.89258 10.89258,10.89258 l 13.46485,0 c 6.03464,0 10.89257,-4.85794 10.89257,-10.89258 0,-6.03464 -4.85793,-10.89258 -10.89257,-10.89258 l -13.46485,0 z m 1.51953,2.46094 10.42383,0 c 4.67144,0 8.43164,3.7602 8.43164,8.43164 0,4.67144 -3.7602,8.43164 -8.43164,8.43164 l -10.42383,0 c -4.67144,0 -8.43164,-3.7602 -8.43164,-8.43164 0,-4.67144 3.7602,-8.43164 8.43164,-8.43164 z"
         style="color:#000000;clip-rule:nonzero;display:inline;overflow:visible;visibility:visible;opacity:1;isolation:auto;mix-blend-mode:normal;color-interpolation:sRGB;color-interpolation-filters:linearRGB;solid-color:#000000;solid-opacity:1;fill:#1c1f24;fill-opacity:1;fill-rule:evenodd;stroke:none;stroke-width:0.0125;stroke-linecap:square;stroke-linejoin:miter;stroke-miterlimit:4;stroke-dasharray:none;stroke-dashoffset:0;stroke-opacity:1;color-rendering:auto;image-rendering:auto;shape-rendering:auto;text-rendering:auto;enable-background:accumulate"
         inkscape:connector-curvature="0" />
      <path
         inkscape:connector-curvature="0"
         style="color:#000000;clip-rule:nonzero;display:inline;overflow:visible;visibility:visible;opacity:1;isolation:auto;mix-blend-mode:normal;color-interpolation:sRGB;color-interpolation-filters:linearRGB;solid-color:#000000;solid-opacity:1;fill:#1c1f24;fill-opacity:1;fill-rule:evenodd;stroke:none;stroke-width:0.0125;stroke-linecap:square;stroke-linejoin:miter;stroke-miterlimit:4;stroke-dasharray:none;stroke-dashoffset:0;stroke-opacity:1;color-rendering:auto;image-rendering:auto;shape-rendering:auto;text-rendering:auto;enable-background:accumulate"
         d="m 153.60742,825.43359 c -6.03464,0 -10.89258,4.85794 -10.89258,10.89258 0,6.03464 4.85794,10.89258 10.89258,10.89258 l 13.46485,0 c 6.03464,0 10.89257,-4.85794 10.89257,-10.89258 0,-6.03464 -4.85793,-10.89258 -10.89257,-10.89258 l -13.46485,0 z m 1.51953,2.46094 10.42383,0 c 4.67144,0 8.43164,3.7602 8.43164,8.43164 0,4.67144 -3.7602,8.43164 -8.43164,8.43164 l -10.42383,0 c -4.67144,0 -8.43164,-3.7602 -8.43164,-8.43164 0,-4.67144 3.7602,-8.43164 8.43164,-8.43164 z"
         id="path4195" />
      <path
         inkscape:connector-curvature="0"
         style="color:#000000;clip-rule:nonzero;display:inline;overflow:visible;visibility:visible;opacity:1;isolation:auto;mix-blend-mode:normal;color-interpolation:sRGB;color-interpolation-filters:linearRGB;solid-color:#000000;solid-opacity:1;fill:#1c1f24;fill-opacity:1;fill-rule:evenodd;stroke:none;stroke-width:0.0125;stroke-linecap:square;stroke-linejoin:miter;stroke-miterlimit:4;stroke-dasharray:none;stroke-dashoffset:0;stroke-opacity:1;color-rendering:auto;image-rendering:auto;shape-rendering:auto;text-rendering:auto;enable-background:accumulate"
         d="m 197.60742,823.43359 c -6.03464,0 -10.89258,4.85794 -10.89258,10.89258 0,6.03464 4.85794,10.89258 10.89258,10.89258 l 13.46485,0 c 6.03464,0 10.89257,-4.85794 10.89257,-10.89258 0,-6.03464 -4.85793,-10.89258 -10.89257,-10.89258 l -13.46485,0 z m 1.51953,2.46094 10.42383,0 c 4.67144,0 8.43164,3.7602 8.43164,8.43164 0,4.67144 -3.7602,8.43164 -8.43164,8.43164 l -10.42383,0 c -4.67144,0 -8.43164,-3.7602 -8.43164,-8.43164 0,-4.67144 3.7602,-8.43164 8.43164,-8.43164 z"
         id="path4197" />
      <path
         id="path4199"
         d="m 199.60742,825.43359 c -6.03464,0 -10.89258,4.85794 -10.89258,10.89258 0,6.03464 4.85794,10.89258 10.89258,10.89258 l 13.46485,0 c 6.03464,0 10.89257,-4.85794 10.89257,-10.89258 0,-6.03464 -4.85793,-10.89258 -10.89257,-10.89258 l -13.46485,0 z m 1.51953,2.46094 10.42383,0 c 4.67144,0 8.43164,3.7602 8.43164,8.43164 0,4.67144 -3.7602,8.43164 -8.43164,8.43164 l -10.42383,0 c -4.67144,0 -8.43164,-3.7602 -8.43164,-8.43164 0,-4.67144 3.7602,-8.43164 8.43164,-8.43164 z"
         style="color:#000000;clip-rule:nonzero;display:inline;overflow:visible;visibility:visible;opacity:1;isolation:auto;mix-blend-mode:normal;color-interpolation:sRGB;color-interpolation-filters:linearRGB;solid-color:#000000;solid-opacity:1;fill:#1c1f24;fill-opacity:1;fill-rule:evenodd;stroke:none;stroke-width:0.0125;stroke-linecap:square;stroke-linejoin:miter;stroke-miterlimit:4;stroke-dasharray:none;stroke-dashoffset:0;stroke-opacity:1;color-rendering:auto;image-rendering:auto;shape-rendering:auto;text-rendering:auto;enable-background:accumulate"
         inkscape:connector-curvature="0" />
      <path
         sodipodi:nodetypes="ccssscccccccc"
         inkscape:connector-curvature="0"
         id="rect4225"
         d="m 162.25827,836.30349 2.75782,2.7832 c 1.127,1.13768 4.91684,2.05469 8.49609,2.05469 l 23.43555,0 c 3.57926,0 4.42578,-0.0211 4.42578,-2.05469 l 0,-2.7832 -10.51849,0 c 0.0342,0.0282 0.0808,0.0553 0.10938,0.084 -0.0219,0.001 -0.0462,8.3e-4 -0.0684,0.002 l -15.69656,0 c -0.36978,-0.009 -0.73408,-0.0485 -1.09765,-0.0859 l -11.84356,0 z"
         style="color:#000000;clip-rule:nonzero;display:inline;overflow:visible;visibility:visible;opacity:1;isolation:auto;mix-blend-mode:normal;color-interpolation:sRGB;color-interpolation-filters:linearRGB;solid-color:#000000;solid-opacity:1;fill:#1c2224;fill-opacity:1;fill-rule:evenodd;stroke:none;stroke-width:0.0125;stroke-linecap:square;stroke-linejoin:miter;stroke-miterlimit:4;stroke-dasharray:none;stroke-dashoffset:0;stroke-opacity:1;color-rendering:auto;image-rendering:auto;shape-rendering:auto;text-rendering:auto;enable-background:accumulate" />
    </g>
    <path
       style="fill:#6f6f91;fill-rule:evenodd;stroke:none;stroke-width:1px;stroke-linecap:butt;stroke-linejoin:miter;stroke-opacity:1;fill-opacity:1"
       d="m -49.999997,1102.3622 49.999973000001,50 L -50,1152.3622 l 0,-50"
       id="path4189"
       inkscape:connector-curvature="0" />
    <path
       inkscape:connector-curvature="0"
       id="path4191"
       d="m -49.999997,1102.3622 49.999973000001,50 L 0,1102.3622 l -50,0"
       style="fill:#6f6f91;fill-opacity:1;fill-rule:evenodd;stroke:none;stroke-width:1px;stroke-linecap:butt;stroke-linejoin:miter;stroke-opacity:1"
       sodipodi:nodetypes="cccc" />
    <path
       sodipodi:nodetypes="ccc"
       style="fill:#939dac;fill-opacity:1;fill-rule:evenodd;stroke:none;stroke-width:1px;stroke-linecap:butt;stroke-linejoin:miter;stroke-opacity:1"
       d="m 50,1102.3622 -50.000023999999,50 L 0,1102.3622"
       id="path4193"
       inkscape:connector-curvature="0" />
    <path
       sodipodi:nodetypes="ccc"
       style="fill:#ffffff;fill-opacity:1;fill-rule:evenodd;stroke:none;stroke-width:1px;stroke-linecap:butt;stroke-linejoin:miter;stroke-opacity:1"
       d="m 49.999976,1152.3622 -50.000023999999,50 50.000023999999,0"
       id="path4198"
       inkscape:connector-curvature="0" />
    <path
       inkscape:connector-curvature="0"
       id="path4200"
       d="m -50.000021,1152.3622 49.999973000002,50 -49.999976000002,0 0,-50"
       style="fill:#6f6f91;fill-opacity:1;fill-rule:evenodd;stroke:none;stroke-width:1px;stroke-linecap:butt;stroke-linejoin:miter;stroke-opacity:1" />
    <path
       sodipodi:nodetypes="cccc"
       style="fill:#6f6f91;fill-opacity:1;fill-rule:evenodd;stroke:none;stroke-width:1px;stroke-linecap:butt;stroke-linejoin:miter;stroke-opacity:1"
       d="m -50.000021,1152.3622 49.999973000002,50 2.3999999e-5,-50 -50.000000000001,0"
       id="path4202"
       inkscape:connector-curvature="0" />
    <path
       inkscape:connector-curvature="0"
       id="path4204"
       d="m 49.999976,1152.3622 -50.000023999998,50 2.3999999e-5,-50"
       style="fill:#939dac;fill-opacity:1;fill-rule:evenodd;stroke:none;stroke-width:1px;stroke-linecap:butt;stroke-linejoin:miter;stroke-opacity:1"
       sodipodi:nodetypes="ccc" />
  </g>
</svg>
